# xmcd
#
# Track frame offsets: 
#        150
#        12740
#        31913
#        55876
#        70505
#        91458
#        109563
#        129019
#        143848
#        162893
#        186774
#        196424
#        210117
#        235678
#        240633
#        255164
#
# Disc length: 3628 seconds
#
# Revision: 4
# Processed by: cddbd v1.5.2PL0 Copyright (c) Steve Scherf et al.
# Submitted via: ExactAudioCopy v0.99pb4
#
DISCID=c40e2a10
DTITLE=Sonny Boy Wlliamson and The Yardbirds - Live At The Craw-Daddy Cl
DTITLE=ub Richmond (London)
DYEAR=1999
DGENRE=Blues
TTITLE0=Bye Bye Bird
TTITLE1=Mister Downchild
TTITLE2=23 Hours Too Long
TTITLE3=Out Of The Water Coast
TTITLE4=Baby Don't Worry
TTITLE5=Pontiac Blues
TTITLE6=Take It Easy Baby (version one)
TTITLE7=I Don't Care No More
TTITLE8=Do The Weston
TTITLE9=The River Rhine (bonus track)
TTITLE10=A Lost Care (bonus track)
TTITLE11=Western Arizona (bonus track)
TTITLE12=Take It Easy Baby (version two)
TTITLE13=Slow Walk (bonus track)
TTITLE14=Highway 69 (bonus track)
TTITLE15=Hey Little Cabin (bonus track)
EXTD=
EXTT0=
EXTT1=
EXTT2=
EXTT3=
EXTT4=
EXTT5=
EXTT6=
EXTT7=
EXTT8=
EXTT9=
EXTT10=
EXTT11=
EXTT12=
EXTT13=
EXTT14=
EXTT15=
PLAYORDER=
